<svg xmlns="http://www.w3.org/2000/svg" viewBox="0 0 64 64" fill="none">
  <path d="M32 4c-2 0-3 1-3 3v3c-8 2-14 10-14 18v8c0 2-2 4-4 4v4h46v-4c-2 0-4-2-4-4v-8c0-8-6-16-14-18V7c0-2-1-3-3-3z" fill="url(#bellBody)"/>
  <circle cx="32" cy="52" r="6" fill="url(#bellClapper)"/>
  <ellipse cx="32" cy="40" rx="16" ry="2" fill="rgba(255,255,255,0.3)"/>
  <defs>
    <linearGradient id="bellBody" x1="32" y1="4" x2="32" y2="44">
      <stop offset="0%" stop-color="#FFD700"/>
      <stop offset="50%" stop-color="#DAA520"/>
      <stop offset="100%" stop-color="#B8860B"/>
    </linearGradient>
    <linearGradient id="bellClapper" x1="32" y1="46" x2="32" y2="58">
      <stop offset="0%" stop-color="#CD853F"/>
      <stop offset="100%" stop-color="#8B4513"/>
    </linearGradient>
  </defs>
</svg>
