<svg xmlns="http://www.w3.org/2000/svg" viewBox="0 0 64 64" fill="none">
  <path d="M16 40c0-8 4-16 12-16 4 0 6 2 6 6 0 6-4 10-10 10-2 0-4-1-4-4 0-2 2-4 4-4" stroke="url(#omGrad)" stroke-width="3" stroke-linecap="round" fill="none"/>
  <path d="M34 36c0-4 2-8 6-8 3 0 5 2 5 5 0 4-3 7-7 7" stroke="url(#omGrad)" stroke-width="3" stroke-linecap="round" fill="none"/>
  <path d="M42 28c2-2 4-4 6-4 3 0 4 2 4 4 0 3-2 6-4 8" stroke="url(#omGrad)" stroke-width="3" stroke-linecap="round" fill="none"/>
  <path d="M44 18c0-2 2-4 4-4 2 0 3 1 3 3 0 2-1 4-3 5" stroke="url(#omGrad)" stroke-width="3" stroke-linecap="round" fill="none"/>
  <circle cx="50" cy="10" r="2" fill="url(#omGrad)"/>
  <path d="M12 48c8 4 20 4 32-2" stroke="url(#omGrad)" stroke-width="2" stroke-linecap="round" fill="none"/>
  <defs>
    <linearGradient id="omGrad" x1="12" y1="10" x2="52" y2="48">
      <stop offset="0%" stop-color="#FFD700"/>
      <stop offset="50%" stop-color="#FFA500"/>
      <stop offset="100%" stop-color="#FF8C00"/>
    </linearGradient>
  </defs>
</svg>
